<svg xmlns="http://www.w3.org/2000/svg" xmlns:xlink="http://www.w3.org/1999/xlink" viewBox="0 0 512 512"><defs><linearGradient id="a" x1="324.42" y1="338.6" x2="395.94" y2="267.09" gradientUnits="userSpaceOnUse"><stop offset="0" stop-color="#ac2a24"/><stop offset=".55" stop-color="#aa2923"/><stop offset=".74" stop-color="#a32721"/><stop offset=".88" stop-color="#98221c"/><stop offset="1" stop-color="#871c16"/><stop offset="1" stop-color="#861c16"/></linearGradient><linearGradient id="b" x1="382.85" y1="338.58" x2="454.33" y2="267.11" gradientTransform="matrix(-1 0 0 1 564.57 0)" xlink:href="#a"/><style>.c{fill:#97231d}</style></defs><path d="M253.12 504c-19.53 0-80.18-72.26-100.69-126-52.62-137.85-30.24-323.76-16.49-333 40.68 36 77.87 113.19 86.68 132.24 1 1.53 2.62 2.37 4.29 1.66 17.54-7.47 35.08-7.45 52.62-.16a3.27 3.27 0 0 0 4.19-1.53C292.56 158.44 329.62 81 370.31 45c13.75 9.24 36.13 195.15-16.49 333-20.51 53.74-81.16 126-100.7 126Z" style="fill:#f1f2f2;stroke:#58595b;stroke-miterlimit:10;stroke-width:.25px"/><path d="M265.38 490.06c-5-85.56-.56-183.56 26.62-211.44 5.37-5.51 22.27-17.57 30.46-23.18 9.48-6.49 14.69-12 22.4-20.39l41.61-48.13c-.14 11.16-.35 21.3-1.31 31.78-1.05 1.93-23.78 43.36-45.38 55.47-3.8 2.81-7.73 5.52-11.89 8.39-17.15 11.83-34.89 24.07-40.42 41.84-17.32 55.66-21.26 138.9-22.09 165.66Z" style="fill:url(#a)"/><path class="c" d="M386.09 188c-.14 10.71-.37 20.53-1.3 30.64-1.44 2.65-23.89 43.32-45.2 55.26-3.74 2.78-7.67 5.49-11.83 8.35-17.21 11.87-35 24.14-40.57 42-15.81 50.82-20.48 124.6-21.81 157.48-2.15-42.51-1.66-83.2 1.46-116.07 4.17-44 13-74 25.51-86.82 5.35-5.49 22.23-17.53 30.4-23.13 9.51-6.51 14.73-12 22.48-20.47L386.09 188m.77-2-42.28 48.89c-7.64 8.34-12.83 13.83-22.33 20.34-8.88 6.08-25.22 17.79-30.52 23.22-27.73 28.34-32.14 130.75-26.19 220.23 0 0 1.29-106.69 22.29-174.17 6.82-21.92 32.86-35.71 52.13-50 22.37-12.53 45.57-55.69 45.57-55.69 1-11 1.2-21.68 1.33-32.91Z"/><path d="M240.73 490c-.83-26.75-4.77-109.91-22.09-165.56-5.53-17.77-23.27-30-40.42-41.84-4.16-2.87-8.09-5.58-11.85-8.36-21.63-12.13-44.22-53.53-45.28-55.5-.88-11.85-1.3-22-1.33-31.79L161.25 235c7.71 8.42 12.92 13.91 22.4 20.4 8.19 5.61 25.09 17.67 30.46 23.18 27.17 27.91 31.62 125.87 26.62 211.42Z" style="fill:url(#b)"/><path class="c" d="M120.14 187.93 161 235.3c7.73 8.44 13 13.94 22.46 20.45 8.17 5.6 25.05 17.64 30.4 23.13 12.52 12.84 21.34 42.85 25.51 86.77 3.12 32.84 3.61 73.52 1.46 116-1.33-32.85-6-106.57-21.81-157.38-5.57-17.9-23.36-30.17-40.57-42-4.16-2.86-8.09-5.57-11.83-8.35-21.29-11.93-43.6-52.55-45.06-55.26-.84-11.4-1.27-21.21-1.32-30.66m-.75-2c0 11.18.53 22.07 1.33 32.91 0 0 23.06 43.16 45.43 55.69 19.27 14.3 45.31 28.09 52.13 50 21 67.48 22.29 174.07 22.29 174.07 5.94-89.47 1.53-191.79-26.19-220.23-5.3-5.43-21.64-17.14-30.52-23.22-9.5-6.51-14.69-12-22.33-20.34l-42.24-48.98Z"/></svg>